<mxfile host="Electron" modified="2024-04-24T18:05:46.772Z" agent="Mozilla/5.0 (Windows NT 10.0; Win64; x64) AppleWebKit/537.36 (KHTML, like Gecko) draw.io/24.2.5 Chrome/120.0.6099.109 Electron/28.1.0 Safari/537.36" etag="WFa8IIdy2yGfQSnvG0B4" version="24.2.5" type="device" pages="3">
  <diagram name="Page-1" id="-XZSJMTc7Yp8Ca2N_RrX">
    <mxGraphModel dx="2284" dy="844" grid="1" gridSize="10" guides="1" tooltips="1" connect="1" arrows="1" fold="1" page="1" pageScale="1" pageWidth="850" pageHeight="1100" math="0" shadow="0">
      <root>
        <mxCell id="0" />
        <mxCell id="1" parent="0" />
        <mxCell id="c8ndPrOFLr2eYHgnw1_O-13" value="" style="group" parent="1" vertex="1" connectable="0">
          <mxGeometry x="476" y="556" width="84" height="44" as="geometry" />
        </mxCell>
        <mxCell id="c8ndPrOFLr2eYHgnw1_O-11" value="" style="rounded=1;whiteSpace=wrap;html=1;" parent="c8ndPrOFLr2eYHgnw1_O-13" vertex="1">
          <mxGeometry width="80" height="40" as="geometry" />
        </mxCell>
        <mxCell id="cuve7xkzAqDX1PYKI7XO-64" value="Load balancer" style="rounded=1;whiteSpace=wrap;html=1;" parent="c8ndPrOFLr2eYHgnw1_O-13" vertex="1">
          <mxGeometry x="4" y="4" width="80" height="40" as="geometry" />
        </mxCell>
        <mxCell id="zfnvI9YEXxwQ388HLTPP-1" value="Web server" style="rounded=1;whiteSpace=wrap;html=1;" parent="1" vertex="1">
          <mxGeometry x="316" y="236" width="80" height="40" as="geometry" />
        </mxCell>
        <mxCell id="c8ndPrOFLr2eYHgnw1_O-6" value="" style="rounded=1;whiteSpace=wrap;html=1;" parent="1" vertex="1">
          <mxGeometry x="476" y="36" width="80" height="40" as="geometry" />
        </mxCell>
        <mxCell id="_dsYM-RK6ODJ3AJcdP68-7" value="&lt;div&gt;chunk&lt;/div&gt;&lt;div&gt;download&lt;br&gt;&lt;/div&gt;" style="edgeStyle=none;rounded=0;orthogonalLoop=1;jettySize=auto;html=1;labelBackgroundColor=#FFFFFF;startArrow=none;startFill=0;fillColor=#ffe6cc;strokeColor=#d79b00;" parent="1" source="cuve7xkzAqDX1PYKI7XO-9" target="cuve7xkzAqDX1PYKI7XO-64" edge="1">
          <mxGeometry relative="1" as="geometry">
            <Array as="points">
              <mxPoint x="640" y="160" />
              <mxPoint x="640" y="480" />
            </Array>
            <mxPoint x="560" y="170" as="sourcePoint" />
            <mxPoint x="560" y="330" as="targetPoint" />
          </mxGeometry>
        </mxCell>
        <mxCell id="cuve7xkzAqDX1PYKI7XO-21" value="&lt;div&gt;log-in&lt;/div&gt;&lt;div&gt;request&lt;br&gt;&lt;/div&gt;" style="edgeStyle=none;rounded=0;orthogonalLoop=1;jettySize=auto;html=1;fillColor=#ffe6cc;strokeColor=#d79b00;" parent="1" source="MMXoF90WJwNgmBRKdFea-1" target="KNmtMF9vEaBxsJGkywoP-10" edge="1">
          <mxGeometry relative="1" as="geometry">
            <mxPoint x="200" y="280" as="targetPoint" />
          </mxGeometry>
        </mxCell>
        <mxCell id="cuve7xkzAqDX1PYKI7XO-38" value="&lt;div&gt;&lt;span style=&quot;&quot;&gt;chunk &lt;br&gt;&lt;/span&gt;&lt;/div&gt;&lt;div&gt;&lt;span style=&quot;&quot;&gt;download&lt;/span&gt;&lt;/div&gt;" style="edgeStyle=none;rounded=0;orthogonalLoop=1;jettySize=auto;html=1;labelBackgroundColor=default;startArrow=none;startFill=0;fillColor=#ffe6cc;strokeColor=#d79b00;" parent="1" source="MMXoF90WJwNgmBRKdFea-1" target="cuve7xkzAqDX1PYKI7XO-64" edge="1">
          <mxGeometry relative="1" as="geometry">
            <mxPoint x="510" y="620" as="sourcePoint" />
            <mxPoint x="470" y="460" as="targetPoint" />
            <mxPoint as="offset" />
          </mxGeometry>
        </mxCell>
        <mxCell id="cuve7xkzAqDX1PYKI7XO-56" value="&lt;div&gt;entity&lt;/div&gt;&lt;div&gt;update&lt;br&gt;&lt;/div&gt;" style="edgeStyle=elbowEdgeStyle;rounded=0;orthogonalLoop=1;jettySize=auto;html=1;exitX=0.5;exitY=0;exitDx=0;exitDy=0;labelBackgroundColor=#FFFFFF;startArrow=none;startFill=0;fillColor=#dae8fc;strokeColor=#6c8ebf;" parent="1" source="MMXoF90WJwNgmBRKdFea-1" target="qrd6j271ipswhN6O9-AD-4" edge="1">
          <mxGeometry x="-0.3333" relative="1" as="geometry">
            <mxPoint as="offset" />
            <mxPoint x="520" y="220" as="targetPoint" />
          </mxGeometry>
        </mxCell>
        <mxCell id="MMXoF90WJwNgmBRKdFea-1" value="&lt;div&gt;Player&lt;/div&gt;" style="rounded=1;whiteSpace=wrap;html=1;" parent="1" vertex="1">
          <mxGeometry x="480" y="320" width="80" height="40" as="geometry" />
        </mxCell>
        <mxCell id="cuve7xkzAqDX1PYKI7XO-2" value="Address server" style="rounded=1;whiteSpace=wrap;html=1;" parent="1" vertex="1">
          <mxGeometry x="-200" y="560" width="80" height="40" as="geometry" />
        </mxCell>
        <mxCell id="cuve7xkzAqDX1PYKI7XO-7" value="&lt;div&gt;auth&lt;/div&gt;&lt;div&gt;request&lt;br&gt;&lt;/div&gt;" style="rounded=0;orthogonalLoop=1;jettySize=auto;html=1;fillColor=#ffe6cc;strokeColor=#d79b00;" parent="1" source="KNmtMF9vEaBxsJGkywoP-10" target="cuve7xkzAqDX1PYKI7XO-5" edge="1">
          <mxGeometry relative="1" as="geometry" />
        </mxCell>
        <mxCell id="cuve7xkzAqDX1PYKI7XO-8" value="&lt;div&gt;player data&lt;/div&gt;&lt;div&gt;query&lt;br&gt;&lt;/div&gt;" style="rounded=0;orthogonalLoop=1;jettySize=auto;html=1;fillColor=#ffe6cc;strokeColor=#d79b00;" parent="1" source="cuve7xkzAqDX1PYKI7XO-4" target="cuve7xkzAqDX1PYKI7XO-6" edge="1">
          <mxGeometry relative="1" as="geometry" />
        </mxCell>
        <mxCell id="KNmtMF9vEaBxsJGkywoP-5" value="player&lt;br&gt;log-in" style="edgeStyle=none;rounded=0;orthogonalLoop=1;jettySize=auto;html=1;fillColor=#dae8fc;strokeColor=#6c8ebf;" parent="1" source="cuve7xkzAqDX1PYKI7XO-4" target="L0Wf4HOtPtDyvwFHwlUj-1" edge="1">
          <mxGeometry x="-0.009" y="-1" relative="1" as="geometry">
            <mxPoint as="offset" />
          </mxGeometry>
        </mxCell>
        <mxCell id="KNmtMF9vEaBxsJGkywoP-6" value="player&lt;br&gt;log-in" style="edgeStyle=none;rounded=0;orthogonalLoop=1;jettySize=auto;html=1;fillColor=#dae8fc;strokeColor=#6c8ebf;" parent="1" source="cuve7xkzAqDX1PYKI7XO-4" target="cuve7xkzAqDX1PYKI7XO-64" edge="1">
          <mxGeometry y="1" relative="1" as="geometry">
            <mxPoint as="offset" />
          </mxGeometry>
        </mxCell>
        <mxCell id="cuve7xkzAqDX1PYKI7XO-4" value="Log-in server" style="rounded=1;whiteSpace=wrap;html=1;" parent="1" vertex="1">
          <mxGeometry x="-40" y="560" width="80" height="40" as="geometry" />
        </mxCell>
        <mxCell id="cuve7xkzAqDX1PYKI7XO-5" value="Authentication server" style="rounded=1;whiteSpace=wrap;html=1;fillColor=#f5f5f5;fontColor=#333333;strokeColor=#666666;" parent="1" vertex="1">
          <mxGeometry x="320" y="120" width="80" height="40" as="geometry" />
        </mxCell>
        <mxCell id="cuve7xkzAqDX1PYKI7XO-43" value="player update" style="edgeStyle=none;rounded=0;orthogonalLoop=1;jettySize=auto;html=1;labelBackgroundColor=#FFFFFF;startArrow=none;startFill=0;fillColor=#dae8fc;strokeColor=#6c8ebf;" parent="1" source="MMXoF90WJwNgmBRKdFea-1" target="cuve7xkzAqDX1PYKI7XO-6" edge="1">
          <mxGeometry relative="1" as="geometry" />
        </mxCell>
        <mxCell id="cuve7xkzAqDX1PYKI7XO-45" value="&lt;div&gt;address&lt;br&gt;&lt;/div&gt;&lt;div&gt;query&lt;br&gt;&lt;/div&gt;" style="edgeStyle=none;rounded=0;orthogonalLoop=1;jettySize=auto;html=1;labelBackgroundColor=#FFFFFF;startArrow=none;startFill=0;fillColor=#ffe6cc;strokeColor=#d79b00;" parent="1" source="cuve7xkzAqDX1PYKI7XO-4" target="cuve7xkzAqDX1PYKI7XO-2" edge="1">
          <mxGeometry relative="1" as="geometry" />
        </mxCell>
        <mxCell id="cuve7xkzAqDX1PYKI7XO-39" value="&lt;div&gt;world&lt;/div&gt;&lt;div&gt;update&lt;br&gt;&lt;/div&gt;" style="edgeStyle=elbowEdgeStyle;rounded=0;orthogonalLoop=1;jettySize=auto;html=1;labelBackgroundColor=#FFFFFF;startArrow=none;startFill=0;fillColor=#dae8fc;strokeColor=#6c8ebf;exitX=0.25;exitY=0;exitDx=0;exitDy=0;" parent="1" source="MMXoF90WJwNgmBRKdFea-1" target="qrd6j271ipswhN6O9-AD-4" edge="1">
          <mxGeometry x="0.3333" relative="1" as="geometry">
            <mxPoint x="670" y="310" as="sourcePoint" />
            <mxPoint as="offset" />
            <mxPoint x="500" y="220" as="targetPoint" />
          </mxGeometry>
        </mxCell>
        <mxCell id="qrd6j271ipswhN6O9-AD-5" style="edgeStyle=elbowEdgeStyle;rounded=0;orthogonalLoop=1;jettySize=auto;html=1;fillColor=#dae8fc;strokeColor=#6c8ebf;exitX=0.75;exitY=1;exitDx=0;exitDy=0;" edge="1" parent="1" source="cuve7xkzAqDX1PYKI7XO-9" target="qrd6j271ipswhN6O9-AD-4">
          <mxGeometry relative="1" as="geometry" />
        </mxCell>
        <mxCell id="qrd6j271ipswhN6O9-AD-7" style="edgeStyle=elbowEdgeStyle;rounded=0;orthogonalLoop=1;jettySize=auto;html=1;exitX=0.25;exitY=1;exitDx=0;exitDy=0;fillColor=#ffe6cc;strokeColor=#d79b00;" edge="1" parent="1" source="cuve7xkzAqDX1PYKI7XO-9" target="qrd6j271ipswhN6O9-AD-4">
          <mxGeometry relative="1" as="geometry" />
        </mxCell>
        <mxCell id="cuve7xkzAqDX1PYKI7XO-9" value="&lt;div&gt;Player&lt;br&gt;&lt;/div&gt;&amp;nbsp;(other)" style="rounded=1;whiteSpace=wrap;html=1;" parent="1" vertex="1">
          <mxGeometry x="480" y="40" width="80" height="40" as="geometry" />
        </mxCell>
        <mxCell id="cuve7xkzAqDX1PYKI7XO-14" value="Legend" style="swimlane;whiteSpace=wrap;html=1;" parent="1" vertex="1">
          <mxGeometry x="-240" y="80" width="200" height="220" as="geometry" />
        </mxCell>
        <mxCell id="cuve7xkzAqDX1PYKI7XO-13" value="" style="endArrow=classic;html=1;rounded=0;fillColor=#dae8fc;strokeColor=#6c8ebf;" parent="cuve7xkzAqDX1PYKI7XO-14" edge="1">
          <mxGeometry width="50" height="50" relative="1" as="geometry">
            <mxPoint x="20" y="100" as="sourcePoint" />
            <mxPoint x="100" y="100" as="targetPoint" />
          </mxGeometry>
        </mxCell>
        <mxCell id="cuve7xkzAqDX1PYKI7XO-15" value="PUB-SUB" style="text;html=1;strokeColor=#6c8ebf;fillColor=#dae8fc;align=center;verticalAlign=middle;whiteSpace=wrap;rounded=0;" parent="cuve7xkzAqDX1PYKI7XO-14" vertex="1">
          <mxGeometry x="100" y="80" width="80" height="40" as="geometry" />
        </mxCell>
        <mxCell id="cuve7xkzAqDX1PYKI7XO-16" value="" style="endArrow=classic;html=1;rounded=0;fillColor=#ffe6cc;strokeColor=#d79b00;" parent="cuve7xkzAqDX1PYKI7XO-14" edge="1">
          <mxGeometry width="50" height="50" relative="1" as="geometry">
            <mxPoint x="20" y="140" as="sourcePoint" />
            <mxPoint x="100" y="140" as="targetPoint" />
          </mxGeometry>
        </mxCell>
        <mxCell id="cuve7xkzAqDX1PYKI7XO-17" value="REQ-REP" style="text;html=1;strokeColor=#d79b00;fillColor=#ffe6cc;align=center;verticalAlign=middle;whiteSpace=wrap;rounded=0;" parent="cuve7xkzAqDX1PYKI7XO-14" vertex="1">
          <mxGeometry x="100" y="120" width="80" height="40" as="geometry" />
        </mxCell>
        <mxCell id="cuve7xkzAqDX1PYKI7XO-18" value="" style="endArrow=classic;html=1;rounded=0;fillColor=#d5e8d4;strokeColor=#82b366;" parent="cuve7xkzAqDX1PYKI7XO-14" edge="1">
          <mxGeometry width="50" height="50" relative="1" as="geometry">
            <mxPoint x="20" y="180" as="sourcePoint" />
            <mxPoint x="100" y="180" as="targetPoint" />
          </mxGeometry>
        </mxCell>
        <mxCell id="cuve7xkzAqDX1PYKI7XO-19" value="ROUTER-DEALER" style="text;html=1;strokeColor=#82b366;fillColor=#d5e8d4;align=center;verticalAlign=middle;whiteSpace=wrap;rounded=0;" parent="cuve7xkzAqDX1PYKI7XO-14" vertex="1">
          <mxGeometry x="100" y="160" width="80" height="40" as="geometry" />
        </mxCell>
        <mxCell id="cuve7xkzAqDX1PYKI7XO-24" value="direction of initiation" style="text;html=1;strokeColor=none;fillColor=none;align=center;verticalAlign=middle;whiteSpace=wrap;rounded=0;" parent="cuve7xkzAqDX1PYKI7XO-14" vertex="1">
          <mxGeometry x="100" y="40" width="80" height="40" as="geometry" />
        </mxCell>
        <mxCell id="cuve7xkzAqDX1PYKI7XO-23" value="" style="endArrow=classic;html=1;rounded=0;" parent="cuve7xkzAqDX1PYKI7XO-14" edge="1">
          <mxGeometry width="50" height="50" relative="1" as="geometry">
            <mxPoint x="20" y="59.5" as="sourcePoint" />
            <mxPoint x="100" y="59.5" as="targetPoint" />
          </mxGeometry>
        </mxCell>
        <mxCell id="c8ndPrOFLr2eYHgnw1_O-4" style="edgeStyle=none;rounded=0;orthogonalLoop=1;jettySize=auto;html=1;exitX=0.5;exitY=0;exitDx=0;exitDy=0;fillColor=#f8cecc;strokeColor=#b85450;" parent="cuve7xkzAqDX1PYKI7XO-14" edge="1">
          <mxGeometry relative="1" as="geometry">
            <mxPoint x="140" y="200" as="sourcePoint" />
            <mxPoint x="140" y="200" as="targetPoint" />
          </mxGeometry>
        </mxCell>
        <mxCell id="cuve7xkzAqDX1PYKI7XO-41" value="&lt;div&gt;position&lt;br&gt;&lt;/div&gt;&lt;div&gt;update&lt;br&gt;&lt;/div&gt;" style="edgeStyle=elbowEdgeStyle;rounded=0;orthogonalLoop=1;jettySize=auto;html=1;labelBackgroundColor=#FFFFFF;startArrow=none;startFill=0;exitX=0.75;exitY=0;exitDx=0;exitDy=0;fillColor=#dae8fc;strokeColor=#6c8ebf;" parent="1" source="MMXoF90WJwNgmBRKdFea-1" target="qrd6j271ipswhN6O9-AD-4" edge="1">
          <mxGeometry x="0.25" relative="1" as="geometry">
            <mxPoint x="510" y="450" as="sourcePoint" />
            <mxPoint x="540" y="220" as="targetPoint" />
            <mxPoint as="offset" />
          </mxGeometry>
        </mxCell>
        <mxCell id="cuve7xkzAqDX1PYKI7XO-70" value="&lt;div&gt;chunk&lt;/div&gt;&lt;div&gt;download&lt;br&gt;&lt;/div&gt;" style="edgeStyle=none;rounded=0;orthogonalLoop=1;jettySize=auto;html=1;labelBackgroundColor=#FFFFFF;startArrow=none;startFill=0;fillColor=#ffe6cc;strokeColor=#d79b00;" parent="1" source="cuve7xkzAqDX1PYKI7XO-64" target="cuve7xkzAqDX1PYKI7XO-1" edge="1">
          <mxGeometry relative="1" as="geometry" />
        </mxCell>
        <mxCell id="v56a6x5pqsM9GCOECDcj-1" value="&lt;div&gt;chunk&lt;/div&gt;&lt;div&gt;download&lt;br&gt;&lt;/div&gt;" style="rounded=0;orthogonalLoop=1;jettySize=auto;html=1;labelBackgroundColor=#FFFFFF;startArrow=none;startFill=0;fillColor=#ffe6cc;strokeColor=#d79b00;" parent="1" source="MMXoF90WJwNgmBRKdFea-1" target="qrd6j271ipswhN6O9-AD-4" edge="1">
          <mxGeometry relative="1" as="geometry">
            <Array as="points">
              <mxPoint x="580" y="300" />
              <mxPoint x="580" y="220" />
            </Array>
            <mxPoint x="760" y="360" as="sourcePoint" />
            <mxPoint x="613.6842105263158" y="220" as="targetPoint" />
            <mxPoint as="offset" />
          </mxGeometry>
        </mxCell>
        <mxCell id="c8ndPrOFLr2eYHgnw1_O-5" value="nearby player query" style="edgeStyle=none;rounded=0;orthogonalLoop=1;jettySize=auto;html=1;fillColor=#ffe6cc;strokeColor=#d79b00;" parent="1" source="cuve7xkzAqDX1PYKI7XO-64" target="L0Wf4HOtPtDyvwFHwlUj-1" edge="1">
          <mxGeometry relative="1" as="geometry" />
        </mxCell>
        <mxCell id="cuve7xkzAqDX1PYKI7XO-68" value="&lt;div&gt;&lt;span style=&quot;&quot;&gt;chunk &lt;br&gt;&lt;/span&gt;&lt;/div&gt;&lt;div&gt;&lt;span style=&quot;&quot;&gt;download&lt;/span&gt;&lt;/div&gt;" style="edgeStyle=none;rounded=0;orthogonalLoop=1;jettySize=auto;html=1;labelBackgroundColor=default;startArrow=none;startFill=0;fillColor=#ffe6cc;strokeColor=#d79b00;" parent="1" source="cuve7xkzAqDX1PYKI7XO-64" target="cuve7xkzAqDX1PYKI7XO-52" edge="1">
          <mxGeometry relative="1" as="geometry">
            <mxPoint x="560" y="600" as="sourcePoint" />
            <mxPoint x="530" y="490" as="targetPoint" />
            <mxPoint as="offset" />
          </mxGeometry>
        </mxCell>
        <mxCell id="c8ndPrOFLr2eYHgnw1_O-3" value="player&lt;br&gt;approach" style="edgeStyle=none;rounded=0;orthogonalLoop=1;jettySize=auto;html=1;fillColor=#ffe6cc;strokeColor=#d79b00;" parent="1" source="MMXoF90WJwNgmBRKdFea-1" target="L0Wf4HOtPtDyvwFHwlUj-1" edge="1">
          <mxGeometry relative="1" as="geometry" />
        </mxCell>
        <mxCell id="L0Wf4HOtPtDyvwFHwlUj-1" value="Player position server" style="rounded=1;whiteSpace=wrap;html=1;" parent="1" vertex="1">
          <mxGeometry x="280" y="440" width="80" height="40" as="geometry" />
        </mxCell>
        <mxCell id="L0Wf4HOtPtDyvwFHwlUj-12" value="player &lt;br&gt;position&lt;br&gt;update" style="edgeStyle=none;rounded=0;orthogonalLoop=1;jettySize=auto;html=1;labelBackgroundColor=#FFFFFF;startArrow=none;startFill=0;fillColor=#dae8fc;strokeColor=#6c8ebf;" parent="1" source="L0Wf4HOtPtDyvwFHwlUj-1" target="cuve7xkzAqDX1PYKI7XO-6" edge="1">
          <mxGeometry relative="1" as="geometry">
            <mxPoint x="170" y="340" as="sourcePoint" />
            <mxPoint x="490" y="340" as="targetPoint" />
          </mxGeometry>
        </mxCell>
        <mxCell id="_dsYM-RK6ODJ3AJcdP68-9" value="&lt;h1&gt;Socket connection types&lt;/h1&gt;&lt;div&gt;note that the arrows do not indicate the direction of data, but rather who connects to who (head binds, tail connects)&lt;/div&gt;&lt;div&gt;Refer to the other pages in this document for the protocol itself&lt;/div&gt;" style="text;html=1;strokeColor=none;fillColor=none;spacing=5;spacingTop=-20;whiteSpace=wrap;overflow=hidden;rounded=0;" parent="1" vertex="1">
          <mxGeometry y="80" width="300" height="160" as="geometry" />
        </mxCell>
        <mxCell id="c8ndPrOFLr2eYHgnw1_O-12" value="" style="group" parent="1" vertex="1" connectable="0">
          <mxGeometry x="116" y="316" width="84" height="44" as="geometry" />
        </mxCell>
        <mxCell id="c8ndPrOFLr2eYHgnw1_O-7" value="" style="rounded=1;whiteSpace=wrap;html=1;" parent="c8ndPrOFLr2eYHgnw1_O-12" vertex="1">
          <mxGeometry width="80" height="40" as="geometry" />
        </mxCell>
        <mxCell id="cuve7xkzAqDX1PYKI7XO-6" value="Player data server" style="rounded=1;whiteSpace=wrap;html=1;" parent="c8ndPrOFLr2eYHgnw1_O-12" vertex="1">
          <mxGeometry x="4" y="4" width="80" height="40" as="geometry" />
        </mxCell>
        <mxCell id="c8ndPrOFLr2eYHgnw1_O-14" value="" style="group" parent="1" vertex="1" connectable="0">
          <mxGeometry x="596" y="676" width="84" height="44" as="geometry" />
        </mxCell>
        <mxCell id="c8ndPrOFLr2eYHgnw1_O-10" value="" style="rounded=1;whiteSpace=wrap;html=1;" parent="c8ndPrOFLr2eYHgnw1_O-14" vertex="1">
          <mxGeometry width="80" height="40" as="geometry" />
        </mxCell>
        <mxCell id="cuve7xkzAqDX1PYKI7XO-52" value="&lt;div&gt;Entity server&lt;/div&gt;&lt;div&gt;(partial)&lt;br&gt;&lt;/div&gt;" style="rounded=1;whiteSpace=wrap;html=1;" parent="c8ndPrOFLr2eYHgnw1_O-14" vertex="1">
          <mxGeometry x="4" y="4" width="80" height="40" as="geometry" />
        </mxCell>
        <mxCell id="c8ndPrOFLr2eYHgnw1_O-21" value="" style="group" parent="1" vertex="1" connectable="0">
          <mxGeometry x="355" y="676" width="84" height="44" as="geometry" />
        </mxCell>
        <mxCell id="c8ndPrOFLr2eYHgnw1_O-18" value="&lt;div&gt;&lt;br&gt;&lt;/div&gt;" style="rounded=1;whiteSpace=wrap;html=1;container=0;" parent="c8ndPrOFLr2eYHgnw1_O-21" vertex="1">
          <mxGeometry width="80" height="40" as="geometry" />
        </mxCell>
        <mxCell id="cuve7xkzAqDX1PYKI7XO-1" value="&lt;div&gt;World &lt;br&gt;&lt;/div&gt;&lt;div&gt;server (partial)&lt;br&gt;&lt;/div&gt;" style="rounded=1;whiteSpace=wrap;html=1;container=0;" parent="c8ndPrOFLr2eYHgnw1_O-21" vertex="1">
          <mxGeometry x="4" y="4" width="80" height="40" as="geometry" />
        </mxCell>
        <mxCell id="KNmtMF9vEaBxsJGkywoP-2" value="every server&lt;br&gt;contacts the address&lt;br&gt;server on boot and&lt;br&gt;eventually disconnects" style="endArrow=classic;html=1;rounded=0;fillColor=#ffe6cc;strokeColor=#d79b00;" parent="1" source="KNmtMF9vEaBxsJGkywoP-3" target="cuve7xkzAqDX1PYKI7XO-2" edge="1">
          <mxGeometry width="50" height="50" relative="1" as="geometry">
            <mxPoint x="960" y="710" as="sourcePoint" />
            <mxPoint x="790" y="970" as="targetPoint" />
          </mxGeometry>
        </mxCell>
        <mxCell id="KNmtMF9vEaBxsJGkywoP-3" value="" style="ellipse;whiteSpace=wrap;html=1;aspect=fixed;" parent="1" vertex="1">
          <mxGeometry x="-180" y="400" width="40" height="40" as="geometry" />
        </mxCell>
        <mxCell id="KNmtMF9vEaBxsJGkywoP-8" value="player&lt;br&gt;log-in" style="edgeStyle=none;rounded=0;orthogonalLoop=1;jettySize=auto;html=1;fillColor=#dae8fc;strokeColor=#6c8ebf;" parent="1" source="cuve7xkzAqDX1PYKI7XO-4" target="cuve7xkzAqDX1PYKI7XO-6" edge="1">
          <mxGeometry x="0.1416" y="-2" relative="1" as="geometry">
            <mxPoint x="341.1111111111113" y="250" as="sourcePoint" />
            <mxPoint x="120" y="280" as="targetPoint" />
            <mxPoint as="offset" />
            <Array as="points">
              <mxPoint x="40" y="410" />
            </Array>
          </mxGeometry>
        </mxCell>
        <mxCell id="KNmtMF9vEaBxsJGkywoP-11" value="log-in&lt;br&gt;&lt;div style=&quot;border-color: var(--border-color); color: rgb(0, 0, 0); font-family: Helvetica; font-size: 11px; font-style: normal; font-variant-ligatures: normal; font-variant-caps: normal; font-weight: 400; letter-spacing: normal; orphans: 2; text-align: center; text-indent: 0px; text-transform: none; widows: 2; word-spacing: 0px; -webkit-text-stroke-width: 0px; text-decoration-thickness: initial; text-decoration-style: initial; text-decoration-color: initial;&quot;&gt;request&lt;/div&gt;" style="edgeStyle=none;rounded=0;orthogonalLoop=1;jettySize=auto;html=1;fillColor=#ffe6cc;strokeColor=#d79b00;" parent="1" source="KNmtMF9vEaBxsJGkywoP-10" target="cuve7xkzAqDX1PYKI7XO-4" edge="1">
          <mxGeometry x="-0.1074" relative="1" as="geometry">
            <Array as="points">
              <mxPoint x="160" y="260" />
              <mxPoint y="340" />
            </Array>
            <mxPoint as="offset" />
          </mxGeometry>
        </mxCell>
        <mxCell id="KNmtMF9vEaBxsJGkywoP-10" value="Web server" style="rounded=1;whiteSpace=wrap;html=1;" parent="1" vertex="1">
          <mxGeometry x="320" y="240" width="80" height="40" as="geometry" />
        </mxCell>
        <mxCell id="qrd6j271ipswhN6O9-AD-10" value="" style="group" vertex="1" connectable="0" parent="1">
          <mxGeometry x="475" y="155" width="85" height="45" as="geometry" />
        </mxCell>
        <mxCell id="qrd6j271ipswhN6O9-AD-9" value="&lt;div&gt;Proxy&lt;/div&gt;" style="rounded=1;whiteSpace=wrap;html=1;" vertex="1" parent="qrd6j271ipswhN6O9-AD-10">
          <mxGeometry width="80" height="40" as="geometry" />
        </mxCell>
        <mxCell id="qrd6j271ipswhN6O9-AD-4" value="&lt;div&gt;Proxy&lt;/div&gt;" style="rounded=1;whiteSpace=wrap;html=1;" vertex="1" parent="qrd6j271ipswhN6O9-AD-10">
          <mxGeometry x="5" y="5" width="80" height="40" as="geometry" />
        </mxCell>
      </root>
    </mxGraphModel>
  </diagram>
  <diagram id="2rH9F_5MqdXdmxQtp1SE" name="Page-2">
    <mxGraphModel dx="1434" dy="844" grid="1" gridSize="10" guides="1" tooltips="1" connect="1" arrows="1" fold="1" page="1" pageScale="1" pageWidth="850" pageHeight="1100" math="0" shadow="0">
      <root>
        <mxCell id="0" />
        <mxCell id="1" parent="0" />
        <mxCell id="-tuKqR9fAFaoYF-rmdgB-1" value="Authentication server" style="shape=umlLifeline;perimeter=lifelinePerimeter;whiteSpace=wrap;html=1;container=1;collapsible=0;recursiveResize=0;outlineConnect=0;" parent="1" vertex="1">
          <mxGeometry x="200" y="240" width="80" height="960" as="geometry" />
        </mxCell>
        <mxCell id="ZFV4AHw3H8PhLqrkobBd-27" value="&lt;div&gt;Player&lt;/div&gt;" style="shape=umlLifeline;perimeter=lifelinePerimeter;whiteSpace=wrap;html=1;container=1;collapsible=0;recursiveResize=0;outlineConnect=0;" parent="1" vertex="1">
          <mxGeometry x="560" y="240" width="80" height="960" as="geometry" />
        </mxCell>
        <mxCell id="ZFV4AHw3H8PhLqrkobBd-28" value="Web server" style="shape=umlLifeline;perimeter=lifelinePerimeter;whiteSpace=wrap;html=1;container=1;collapsible=0;recursiveResize=0;outlineConnect=0;" parent="1" vertex="1">
          <mxGeometry x="320" y="240" width="80" height="960" as="geometry" />
        </mxCell>
        <mxCell id="ZFV4AHw3H8PhLqrkobBd-29" value="Player &lt;br&gt;(other)&lt;div&gt;&lt;/div&gt;" style="shape=umlLifeline;perimeter=lifelinePerimeter;whiteSpace=wrap;html=1;container=1;collapsible=0;recursiveResize=0;outlineConnect=0;" parent="1" vertex="1">
          <mxGeometry x="680" y="240" width="80" height="960" as="geometry" />
        </mxCell>
        <mxCell id="ZFV4AHw3H8PhLqrkobBd-30" value="&lt;div&gt;World &lt;br&gt;&lt;/div&gt;&lt;div&gt;server (partial)&lt;br&gt;&lt;/div&gt;" style="shape=umlLifeline;perimeter=lifelinePerimeter;whiteSpace=wrap;html=1;container=1;collapsible=0;recursiveResize=0;outlineConnect=0;" parent="1" vertex="1">
          <mxGeometry x="920" y="240" width="80" height="960" as="geometry" />
        </mxCell>
        <mxCell id="ZFV4AHw3H8PhLqrkobBd-31" value="&lt;div&gt;Entity server&lt;/div&gt;&lt;div&gt;(partial)&lt;br&gt;&lt;/div&gt;" style="shape=umlLifeline;perimeter=lifelinePerimeter;whiteSpace=wrap;html=1;container=1;collapsible=0;recursiveResize=0;outlineConnect=0;" parent="1" vertex="1">
          <mxGeometry x="1040" y="240" width="80" height="960" as="geometry" />
        </mxCell>
        <mxCell id="ZFV4AHw3H8PhLqrkobBd-32" value="Load balancer" style="shape=umlLifeline;perimeter=lifelinePerimeter;whiteSpace=wrap;html=1;container=1;collapsible=0;recursiveResize=0;outlineConnect=0;" parent="1" vertex="1">
          <mxGeometry x="800" y="240" width="80" height="960" as="geometry" />
        </mxCell>
        <mxCell id="ZFV4AHw3H8PhLqrkobBd-33" value="Player data server" style="shape=umlLifeline;perimeter=lifelinePerimeter;whiteSpace=wrap;html=1;container=1;collapsible=0;recursiveResize=0;outlineConnect=0;" parent="1" vertex="1">
          <mxGeometry x="440" y="240" width="80" height="950" as="geometry" />
        </mxCell>
        <mxCell id="ZFV4AHw3H8PhLqrkobBd-34" value="Address server" style="shape=umlLifeline;perimeter=lifelinePerimeter;whiteSpace=wrap;html=1;container=1;collapsible=0;recursiveResize=0;outlineConnect=0;" parent="1" vertex="1">
          <mxGeometry x="80" y="240" width="80" height="960" as="geometry" />
        </mxCell>
        <mxCell id="-w7kCB416xzwlQNdPPHb-1" value="Client logon sequence (errors not shown)" style="text;html=1;strokeColor=none;fillColor=none;align=left;verticalAlign=middle;whiteSpace=wrap;rounded=0;" parent="1" vertex="1">
          <mxGeometry x="80" y="160" width="360" height="40" as="geometry" />
        </mxCell>
        <mxCell id="f25i-eDw_AEn_wn4EW7S-1" value="logon request" style="endArrow=classic;html=1;rounded=0;" parent="1" source="ZFV4AHw3H8PhLqrkobBd-27" target="ZFV4AHw3H8PhLqrkobBd-28" edge="1">
          <mxGeometry x="0.4125" width="50" height="50" relative="1" as="geometry">
            <mxPoint x="700" y="450" as="sourcePoint" />
            <mxPoint x="750" y="400" as="targetPoint" />
            <Array as="points">
              <mxPoint x="500" y="300" />
            </Array>
            <mxPoint x="1" as="offset" />
          </mxGeometry>
        </mxCell>
        <mxCell id="f25i-eDw_AEn_wn4EW7S-2" value="authentication" style="endArrow=classic;html=1;rounded=0;" parent="1" source="ZFV4AHw3H8PhLqrkobBd-28" target="-tuKqR9fAFaoYF-rmdgB-1" edge="1">
          <mxGeometry width="50" height="50" relative="1" as="geometry">
            <mxPoint x="609.5" y="310" as="sourcePoint" />
            <mxPoint x="369.5" y="310" as="targetPoint" />
            <Array as="points">
              <mxPoint x="300" y="310" />
            </Array>
          </mxGeometry>
        </mxCell>
        <mxCell id="f25i-eDw_AEn_wn4EW7S-4" value="query server addresses" style="endArrow=classic;html=1;rounded=0;" parent="1" source="ZFV4AHw3H8PhLqrkobBd-28" target="ZFV4AHw3H8PhLqrkobBd-34" edge="1">
          <mxGeometry x="0.3292" width="50" height="50" relative="1" as="geometry">
            <mxPoint x="369.5" y="320" as="sourcePoint" />
            <mxPoint x="249.5" y="320" as="targetPoint" />
            <Array as="points">
              <mxPoint x="300" y="330" />
            </Array>
            <mxPoint x="1" as="offset" />
          </mxGeometry>
        </mxCell>
        <mxCell id="f25i-eDw_AEn_wn4EW7S-5" value="" style="endArrow=classic;html=1;rounded=0;dashed=1;dashPattern=8 8;" parent="1" source="ZFV4AHw3H8PhLqrkobBd-34" target="ZFV4AHw3H8PhLqrkobBd-28" edge="1">
          <mxGeometry width="50" height="50" relative="1" as="geometry">
            <mxPoint x="369.5" y="330" as="sourcePoint" />
            <mxPoint x="129.5" y="330" as="targetPoint" />
            <Array as="points">
              <mxPoint x="310" y="340" />
            </Array>
          </mxGeometry>
        </mxCell>
        <mxCell id="f25i-eDw_AEn_wn4EW7S-6" value="request player&lt;br&gt;data and player ip" style="endArrow=classic;html=1;rounded=0;" parent="1" source="ZFV4AHw3H8PhLqrkobBd-28" target="ZFV4AHw3H8PhLqrkobBd-33" edge="1">
          <mxGeometry width="50" height="50" relative="1" as="geometry">
            <mxPoint x="700" y="450" as="sourcePoint" />
            <mxPoint x="750" y="400" as="targetPoint" />
            <Array as="points">
              <mxPoint x="420" y="370" />
            </Array>
            <mxPoint as="offset" />
          </mxGeometry>
        </mxCell>
        <mxCell id="f25i-eDw_AEn_wn4EW7S-7" value="auth success" style="endArrow=classic;html=1;rounded=0;dashed=1;dashPattern=8 8;" parent="1" source="-tuKqR9fAFaoYF-rmdgB-1" target="ZFV4AHw3H8PhLqrkobBd-28" edge="1">
          <mxGeometry width="50" height="50" relative="1" as="geometry">
            <mxPoint x="249.5" y="370" as="sourcePoint" />
            <mxPoint x="360" y="230" as="targetPoint" />
            <Array as="points">
              <mxPoint x="290" y="360" />
            </Array>
          </mxGeometry>
        </mxCell>
        <mxCell id="8QYPCWkcC_Ok5zEBA0vk-1" value="logon success&lt;br&gt;(list ip addresses)" style="endArrow=classic;html=1;rounded=0;dashed=1;dashPattern=8 8;" parent="1" source="ZFV4AHw3H8PhLqrkobBd-28" target="ZFV4AHw3H8PhLqrkobBd-27" edge="1">
          <mxGeometry x="0.5875" width="50" height="50" relative="1" as="geometry">
            <mxPoint x="369.5" y="380" as="sourcePoint" />
            <mxPoint x="489.5" y="380" as="targetPoint" />
            <Array as="points">
              <mxPoint x="430" y="400" />
            </Array>
            <mxPoint as="offset" />
          </mxGeometry>
        </mxCell>
        <mxCell id="8QYPCWkcC_Ok5zEBA0vk-2" value="" style="endArrow=classic;html=1;rounded=0;dashed=1;dashPattern=8 8;" parent="1" source="ZFV4AHw3H8PhLqrkobBd-33" target="ZFV4AHw3H8PhLqrkobBd-28" edge="1">
          <mxGeometry width="50" height="50" relative="1" as="geometry">
            <mxPoint x="129.5" y="350" as="sourcePoint" />
            <mxPoint x="369.5" y="350" as="targetPoint" />
            <Array as="points">
              <mxPoint x="420" y="390" />
            </Array>
          </mxGeometry>
        </mxCell>
      </root>
    </mxGraphModel>
  </diagram>
  <diagram id="aE-fr7ddCMi2aRXdE1My" name="Page-3">
    <mxGraphModel dx="1434" dy="844" grid="1" gridSize="10" guides="1" tooltips="1" connect="1" arrows="1" fold="1" page="1" pageScale="1" pageWidth="850" pageHeight="1100" math="0" shadow="0">
      <root>
        <mxCell id="0" />
        <mxCell id="1" parent="0" />
        <mxCell id="s1Q3ixZjFzRjojSJiRD9-1" value="Authentication server" style="shape=umlLifeline;perimeter=lifelinePerimeter;whiteSpace=wrap;html=1;container=1;collapsible=0;recursiveResize=0;outlineConnect=0;" parent="1" vertex="1">
          <mxGeometry x="200" y="240" width="80" height="960" as="geometry" />
        </mxCell>
        <mxCell id="s1Q3ixZjFzRjojSJiRD9-3" value="Web server" style="shape=umlLifeline;perimeter=lifelinePerimeter;whiteSpace=wrap;html=1;container=1;collapsible=0;recursiveResize=0;outlineConnect=0;" parent="1" vertex="1">
          <mxGeometry x="320" y="240" width="80" height="960" as="geometry" />
        </mxCell>
        <mxCell id="s1Q3ixZjFzRjojSJiRD9-5" value="&lt;div&gt;World &lt;br&gt;&lt;/div&gt;&lt;div&gt;server (partial)&lt;br&gt;&lt;/div&gt;" style="shape=umlLifeline;perimeter=lifelinePerimeter;whiteSpace=wrap;html=1;container=1;collapsible=0;recursiveResize=0;outlineConnect=0;" parent="1" vertex="1">
          <mxGeometry x="920" y="240" width="80" height="960" as="geometry" />
        </mxCell>
        <mxCell id="s1Q3ixZjFzRjojSJiRD9-6" value="&lt;div&gt;Entity server&lt;/div&gt;&lt;div&gt;(partial)&lt;br&gt;&lt;/div&gt;" style="shape=umlLifeline;perimeter=lifelinePerimeter;whiteSpace=wrap;html=1;container=1;collapsible=0;recursiveResize=0;outlineConnect=0;" parent="1" vertex="1">
          <mxGeometry x="1040" y="240" width="80" height="960" as="geometry" />
        </mxCell>
        <mxCell id="s1Q3ixZjFzRjojSJiRD9-7" value="Load balancer" style="shape=umlLifeline;perimeter=lifelinePerimeter;whiteSpace=wrap;html=1;container=1;collapsible=0;recursiveResize=0;outlineConnect=0;" parent="1" vertex="1">
          <mxGeometry x="800" y="240" width="80" height="960" as="geometry" />
        </mxCell>
        <mxCell id="s1Q3ixZjFzRjojSJiRD9-8" value="Player data server" style="shape=umlLifeline;perimeter=lifelinePerimeter;whiteSpace=wrap;html=1;container=1;collapsible=0;recursiveResize=0;outlineConnect=0;" parent="1" vertex="1">
          <mxGeometry x="440" y="240" width="80" height="950" as="geometry" />
        </mxCell>
        <mxCell id="s1Q3ixZjFzRjojSJiRD9-9" value="Address server" style="shape=umlLifeline;perimeter=lifelinePerimeter;whiteSpace=wrap;html=1;container=1;collapsible=0;recursiveResize=0;outlineConnect=0;" parent="1" vertex="1">
          <mxGeometry x="80" y="240" width="80" height="960" as="geometry" />
        </mxCell>
        <mxCell id="s1Q3ixZjFzRjojSJiRD9-10" value="unused" style="text;html=1;strokeColor=none;fillColor=none;align=left;verticalAlign=middle;whiteSpace=wrap;rounded=0;" parent="1" vertex="1">
          <mxGeometry x="80" y="160" width="360" height="40" as="geometry" />
        </mxCell>
        <mxCell id="TnpoW8dTERMTrTvTk78g-1" value="&lt;div&gt;Player&lt;/div&gt;" style="shape=umlLifeline;perimeter=lifelinePerimeter;whiteSpace=wrap;html=1;container=1;collapsible=0;recursiveResize=0;outlineConnect=0;" parent="1" vertex="1">
          <mxGeometry x="560" y="240" width="80" height="960" as="geometry" />
        </mxCell>
        <mxCell id="TnpoW8dTERMTrTvTk78g-2" value="Player &lt;br&gt;(other)&lt;div&gt;&lt;/div&gt;" style="shape=umlLifeline;perimeter=lifelinePerimeter;whiteSpace=wrap;html=1;container=1;collapsible=0;recursiveResize=0;outlineConnect=0;" parent="1" vertex="1">
          <mxGeometry x="680" y="240" width="80" height="960" as="geometry" />
        </mxCell>
      </root>
    </mxGraphModel>
  </diagram>
</mxfile>
